# xmcd
#
# Track frame offsets: 
#        150
#        18928
#        44330
#        62323
#        83426
#        99900
#        172359
#        198677
#        220226
#        241993
#        263910
#        278147
#        297836
#        317325
#        334781
#
# Disc length: 4728 seconds
#
# Revision: 1
# Processed by: cddbd v1.5.2PL0 Copyright (c) Steve Scherf et al.
# Submitted via: ExactAudioCopyFreeDBPlugin 1.0
#
DISCID=d012760f
DTITLE=Uriah Heep - 1971 Salisbury and 1975 Return To Fantasy
DYEAR=1900
DGENRE=
TTITLE0=01 Bird Of Prey
TTITLE1=02 The Park
TTITLE2=03 Time To Live
TTITLE3=04 Lady In Black
TTITLE4=05 High Priestess
TTITLE5=06 Salisbury
TTITLE6=07 Return To Fantasy
TTITLE7=08 Shady Lady
TTITLE8=09 Devil's Daughter
TTITLE9=10 Beautiful Dream
TTITLE10=11 Prima Donna
TTITLE11=12 Your Turn To Remeber
TTITLE12=13 Showdown
TTITLE13=14 Why Did You Go
TTITLE14=15 A Year Or A Day
EXTD=Salisbury 1To6-(jan 1971)Return To Fantasy 7to15(jan 1975)russian
EXTD=albums
EXTT0=
EXTT1=
EXTT2=
EXTT3=
EXTT4=
EXTT5=
EXTT6=
EXTT7=
EXTT8=
EXTT9=
EXTT10=
EXTT11=
EXTT12=
EXTT13=
EXTT14=
PLAYORDER=
